<?xml version="1.0" standalone="no"?>
<!DOCTYPE svg PUBLIC "-//W3C//DTD SVG 20010904//EN"
 "http://www.w3.org/TR/2001/REC-SVG-20010904/DTD/svg10.dtd">
<svg version="1.0" xmlns="http://www.w3.org/2000/svg"
 width="820.000000pt" height="640.000000pt" viewBox="0 0 820.000000 640.000000"
 preserveAspectRatio="xMidYMid meet">

<g transform="translate(0.000000,640.000000) scale(0.100000,-0.100000)"
fill="#000000" stroke="none">
<path d="M3990 6194 c-608 -57 -1174 -281 -1639 -650 -153 -122 -402 -379
-522 -539 -383 -512 -586 -1094 -605 -1735 -7 -233 3 -363 29 -368 17 -3 18 7
11 175 -40 1084 508 2099 1438 2659 727 438 1623 542 2433 283 1001 -320 1768
-1160 1994 -2184 71 -324 90 -750 44 -1037 -5 -34 -3 -38 15 -38 24 0 27 15
42 190 66 777 -189 1575 -698 2180 -98 117 -308 322 -422 414 -211 168 -522
348 -782 450 -212 83 -446 144 -698 182 -102 15 -538 27 -640 18z"/>
<path d="M4045 5399 c-229 -41 -332 -85 -477 -200 -16 -13 -56 -27 -100 -35
-159 -28 -266 -67 -368 -135 -56 -38 -74 -56 -170 -171 -25 -30 -76 -79 -113
-109 -110 -88 -156 -163 -183 -304 -25 -126 -14 -228 34 -324 29 -57 100 -128
155 -155 19 -8 59 -40 88 -69 30 -29 72 -61 94 -72 50 -24 188 -32 251 -15 25
7 47 10 50 7 5 -5 -14 -126 -37 -224 -18 -79 -12 -116 25 -159 18 -21 50 -45
70 -52 34 -12 42 -11 107 14 38 15 72 31 74 34 2 4 -14 13 -35 20 -52 17 -51
36 3 50 23 6 49 13 57 15 8 3 47 9 85 15 414 61 755 52 1120 -31 50 -12 98
-25 107 -30 22 -11 56 -12 43 -1 -38 32 -281 109 -445 141 -177 34 -204 36
-440 35 -246 -1 -348 -11 -525 -50 -38 -8 -85 -18 -104 -21 l-34 -6 7 34 c4
19 12 59 17 89 18 110 28 161 34 180 14 44 172 107 341 137 75 13 153 17 324
17 238 -1 419 -18 680 -65 85 -15 124 -16 128 -4 4 12 -48 28 -182 55 -250 50
-302 57 -520 72 -300 20 -564 -14 -754 -98 -30 -13 -60 -24 -67 -24 -18 0 -24
44 -10 77 24 57 47 67 240 107 193 41 298 50 560 50 265 0 363 -10 515 -51 30
-8 69 -18 85 -23 45 -12 146 -48 181 -65 l32 -15 7 -231 c4 -127 11 -227 16
-222 4 4 19 82 33 173 14 91 31 188 39 215 l14 50 59 6 c112 12 202 55 279
134 60 62 79 107 80 185 1 45 7 77 22 105 42 81 56 151 51 259 -4 86 -10 111
-37 170 -39 87 -88 146 -165 203 -126 93 -331 163 -476 163 -31 0 -57 7 -80
23 -73 49 -210 98 -345 122 -89 16 -358 18 -440 4z m495 -129 c113 -29 252
-97 321 -157 59 -51 121 -134 141 -189 18 -51 42 -45 33 8 -4 23 -11 49 -15
58 -25 52 -60 131 -60 137 0 12 105 -9 181 -37 104 -38 185 -88 243 -150 79
-85 115 -201 95 -310 -13 -70 -47 -148 -85 -193 -28 -34 -29 -40 -7 -62 54
-55 -32 -170 -161 -215 -31 -11 -82 -20 -114 -20 -57 0 -170 24 -185 39 -7 7
21 95 58 186 27 64 93 191 135 257 22 35 36 68 32 76 -13 36 -175 -191 -267
-376 -54 -108 -58 -114 -83 -109 -15 2 -72 14 -127 25 -55 11 -121 23 -147 27
-37 5 -48 10 -48 24 0 9 4 21 9 26 18 20 43 163 48 278 5 102 4 117 -10 117
-11 0 -18 -14 -23 -47 -6 -46 -22 -113 -42 -178 -16 -51 -71 -160 -93 -184
-18 -19 -29 -22 -73 -19 -28 3 -130 1 -226 -3 l-175 -8 -55 36 c-173 114 -260
293 -264 543 -1 94 -4 115 -16 115 -40 0 -51 -304 -14 -410 35 -100 107 -211
174 -265 22 -18 37 -37 32 -42 -4 -4 -39 -16 -77 -27 -39 -10 -95 -28 -125
-40 -103 -40 -251 -23 -373 41 -70 38 -149 122 -185 198 -23 48 -27 68 -27
155 0 94 2 104 34 170 61 124 171 214 334 271 56 20 195 54 221 54 24 0 32 5
147 81 172 114 314 149 579 145 141 -3 191 -8 260 -26z m-1627 -654 c3 -29 14
-71 25 -93 13 -24 17 -45 12 -53 -17 -27 42 -157 102 -225 46 -53 135 -116
191 -136 50 -18 61 -32 48 -58 -6 -11 -11 -42 -11 -69 0 -38 -4 -51 -17 -57
-30 -11 -139 -18 -176 -11 -36 7 -127 78 -127 100 0 7 -23 23 -51 36 -104 46
-153 110 -168 215 -12 84 5 188 44 265 25 49 99 140 115 140 4 0 10 -24 13
-54z"/>
<path d="M2104 3785 c-3 -8 -3 -19 1 -25 6 -10 728 -370 742 -370 3 0 21 -11
40 -26 53 -40 38 -83 -25 -68 -15 4 -205 96 -422 206 -393 198 -430 213 -430
168 0 -30 25 -45 305 -190 77 -40 167 -87 200 -105 33 -18 114 -61 180 -94
136 -71 178 -104 169 -138 -9 -35 -55 -29 -138 16 -153 83 -559 318 -651 376
-66 42 -87 48 -110 31 -18 -13 -18 -15 -2 -39 14 -22 409 -266 731 -451 68
-39 94 -71 83 -100 -4 -10 -19 -16 -40 -16 -38 0 -99 35 -367 212 -364 239
-412 269 -427 266 -27 -5 -26 -25 4 -56 44 -46 630 -449 738 -509 119 -64 267
-70 370 -15 32 18 65 32 73 32 8 0 70 -32 139 -70 l124 -70 197 2 197 3 -135
69 c-74 38 -157 81 -185 96 -27 15 -96 51 -152 80 l-102 52 1 72 c0 54 -6 84
-22 119 -46 98 -151 187 -286 241 -38 16 -78 32 -89 37 -11 5 -148 60 -305
123 -157 63 -307 124 -333 135 -58 25 -66 26 -73 6z"/>
<path d="M5800 3735 c-330 -68 -530 -254 -505 -470 13 -113 17 -102 -65 -146
-200 -108 -244 -131 -365 -195 -71 -37 -175 -92 -230 -121 l-100 -53 189 0
188 0 235 140 c129 77 236 140 237 140 2 0 33 -20 69 -44 158 -106 318 -84
524 71 148 111 270 276 305 414 35 141 -29 237 -180 268 -70 15 -221 12 -302
-4z"/>
<path d="M1260 2820 c-18 -11 -4 -42 17 -38 10 2 19 10 21 19 4 19 -19 31 -38
19z"/>
<path d="M1581 2734 c-136 -29 -270 -114 -310 -197 -58 -120 10 -229 134 -214
99 11 177 106 174 211 l-2 51 -6 -55 c-8 -69 -34 -121 -77 -160 -29 -25 -44
-30 -83 -30 -43 0 -53 4 -76 32 -24 29 -27 38 -22 86 13 123 123 226 290 268
67 18 178 15 231 -6 l29 -11 -50 -34 c-74 -50 -124 -112 -225 -282 -129 -217
-207 -282 -306 -257 -46 11 -76 59 -48 79 32 24 15 75 -24 75 -20 0 -40 -34
-40 -66 0 -97 151 -133 288 -69 73 34 136 103 211 231 103 176 123 206 170
257 42 45 45 46 63 31 26 -24 24 -98 -5 -149 -23 -40 -65 -68 -122 -81 -29 -6
-29 -6 -7 -15 31 -12 29 -45 -9 -132 -53 -122 -41 -177 38 -177 45 0 88 23
141 73 l42 41 0 -28 c0 -17 11 -38 29 -57 25 -25 37 -29 83 -29 62 0 135 31
191 79 l36 32 7 -36 c19 -101 166 -101 289 -1 l40 33 -3 -37 c-8 -85 65 -93
162 -17 38 29 40 30 25 7 -67 -107 -189 -310 -189 -315 0 -3 19 -5 42 -3 l41
3 112 187 c61 102 124 203 139 223 15 20 26 39 23 42 -3 3 35 66 84 140 l90
134 -47 -3 -46 -3 -97 -158 c-122 -198 -220 -301 -268 -283 -24 10 -1 61 101
219 l37 57 -43 0 c-43 0 -43 0 -96 -85 -75 -119 -160 -185 -241 -185 -75 0
-101 73 -56 161 24 45 72 95 105 109 53 22 72 -13 45 -82 -11 -27 39 -23 65 4
27 30 25 52 -7 78 -71 56 -237 -22 -298 -140 -38 -72 -124 -130 -195 -130 -52
0 -82 28 -78 73 3 30 6 32 79 52 119 33 175 76 162 126 -6 20 -44 39 -81 39
-37 0 -121 -41 -166 -80 -20 -18 -48 -54 -61 -80 -37 -72 -145 -160 -181 -146
-20 8 -17 35 12 122 30 90 27 135 -12 161 l-25 16 65 17 c75 19 119 53 137
107 14 45 5 81 -33 119 -31 33 -30 38 20 55 20 7 17 7 -13 2 -54 -9 -80 -8
-144 5 -70 15 -160 14 -240 -4z m656 -324 c8 -40 -75 -119 -141 -136 -34 -8
-33 3 7 62 50 75 127 117 134 74z"/>
<path d="M4375 2733 c-114 -16 -267 -102 -353 -199 -72 -81 -105 -154 -106
-234 -1 -76 20 -121 75 -158 30 -21 43 -23 116 -20 145 8 248 83 260 190 4 37
1 49 -22 76 -23 27 -33 32 -72 32 -24 0 -54 -5 -66 -11 -29 -15 -76 -59 -89
-84 -6 -11 10 1 35 28 37 38 53 47 80 47 46 0 67 -26 67 -81 -1 -90 -80 -178
-169 -187 -94 -9 -137 45 -129 160 13 174 188 380 361 425 61 15 112 4 122
-28 18 -56 -38 -149 -99 -165 -50 -12 -80 6 -87 51 l-6 40 -2 -36 c-2 -50 26
-73 87 -73 93 1 162 58 162 136 0 28 -7 42 -31 62 -17 14 -38 26 -47 26 -9 0
-26 2 -37 4 -11 2 -33 2 -50 -1z"/>
<path d="M5131 2711 c-33 -6 -42 -18 -157 -206 -86 -140 -129 -201 -143 -203
-33 -5 -57 14 -69 56 -23 74 -81 97 -173 67 -70 -24 -153 -103 -169 -163 -13
-52 0 -104 33 -127 33 -23 110 -19 166 10 54 27 93 69 124 132 19 39 22 41 41
27 11 -8 28 -14 38 -14 23 0 22 -2 -2 -42 -11 -18 -20 -50 -20 -71 0 -30 5
-40 25 -49 37 -17 94 4 152 56 l48 43 -3 -43 c-4 -39 -1 -45 22 -55 37 -17 93
2 150 52 41 36 46 38 46 19 0 -12 13 -35 29 -51 25 -25 37 -29 83 -29 64 0
138 32 196 84 l40 37 7 -41 c18 -105 160 -109 288 -8 38 31 40 31 34 9 -17
-67 47 -100 122 -61 23 11 59 36 79 54 l37 34 -3 -37 c-9 -92 77 -93 179 -3
l46 41 12 -39 c15 -51 44 -70 104 -70 89 0 173 59 220 156 l20 41 31 -16 c17
-9 33 -17 35 -18 3 -2 -36 -69 -77 -130 -14 -23 -14 -23 27 -23 37 0 43 4 68
43 15 23 40 58 55 78 15 19 28 42 30 50 2 8 17 34 34 59 50 74 50 70 1 70 -44
0 -45 -1 -86 -65 -41 -66 -61 -78 -93 -52 -9 6 -21 28 -27 48 -23 71 -82 94
-169 65 -57 -19 -135 -83 -158 -130 -21 -40 -100 -123 -137 -143 -37 -19 -61
-10 -52 19 7 25 50 99 109 191 l37 57 -43 0 c-43 0 -44 -1 -87 -72 -56 -90
-103 -143 -160 -180 -49 -31 -79 -36 -87 -14 -6 16 8 47 79 169 l51 87 58 0
c32 0 58 4 58 10 0 6 -23 10 -51 10 l-51 0 16 25 c9 14 23 36 32 50 l16 25
-45 0 c-45 0 -46 -1 -73 -50 -24 -44 -31 -50 -60 -50 -18 0 -36 -4 -39 -10 -4
-6 7 -10 24 -10 17 0 31 -2 31 -5 0 -3 -24 -42 -53 -88 -72 -111 -147 -167
-226 -167 -75 0 -101 73 -56 161 24 45 72 95 105 109 53 22 72 -13 45 -82 -11
-27 39 -23 65 4 27 30 25 52 -7 78 -68 54 -237 -22 -293 -131 -20 -38 -84 -95
-137 -123 -76 -39 -157 -8 -151 57 3 30 6 32 79 52 119 33 175 76 162 126 -6
20 -44 39 -81 39 -39 0 -123 -42 -170 -84 -22 -20 -49 -59 -61 -86 -34 -80
-150 -160 -167 -116 -8 20 22 74 183 330 79 126 142 230 140 232 -2 2 -23 0
-47 -4 l-44 -7 -127 -210 c-93 -153 -145 -228 -192 -277 -65 -67 -109 -90
-129 -70 -17 17 4 57 169 321 84 134 153 245 153 247 0 5 -13 4 -59 -5z m-451
-296 c19 -22 7 -87 -29 -160 -69 -140 -189 -174 -160 -46 18 81 73 172 123
202 38 23 50 24 66 4z m817 -5 c8 -40 -75 -119 -141 -136 -34 -8 -33 3 7 62
50 75 127 117 134 74z m1153 5 c19 -22 7 -87 -29 -160 -51 -104 -133 -157
-161 -105 -24 46 53 213 119 257 40 27 54 28 71 8z"/>
<path d="M7143 2664 c-9 -23 13 -40 32 -24 12 10 13 16 4 26 -15 18 -28 18
-36 -2z"/>
<path d="M2876 2591 c-25 -27 -6 -64 31 -59 34 4 52 32 37 56 -16 24 -47 26
-68 3z"/>
<path d="M6376 2591 c-25 -27 -6 -64 31 -59 34 4 52 32 37 56 -16 24 -47 26
-68 3z"/>
<path d="M3140 2433 c-32 -11 -87 -55 -110 -86 -19 -26 -14 -23 28 16 28 26
60 47 71 47 39 0 42 -74 6 -146 -25 -50 -26 -51 -87 -62 -66 -12 -105 -39 -95
-66 11 -29 77 -20 137 19 48 30 175 95 186 95 2 0 4 -16 4 -36 0 -26 8 -43 29
-65 79 -78 255 -2 384 166 17 22 -5 3 -49 -41 -45 -45 -99 -91 -122 -103 -85
-43 -167 -17 -160 52 3 30 6 32 79 52 119 33 175 76 162 126 -6 20 -44 39 -81
39 -62 0 -186 -81 -218 -141 -13 -25 -78 -69 -102 -69 -5 0 1 21 14 47 52 102
11 187 -76 156z m397 -23 c8 -40 -75 -119 -141 -136 -34 -8 -33 3 7 62 50 75
127 117 134 74z m-447 -220 c0 -11 -70 -60 -86 -60 -18 0 -24 27 -9 40 27 22
95 37 95 20z"/>
<path d="M7050 2433 c-30 -11 -108 -74 -125 -101 -12 -17 1 -9 36 24 60 56 97
74 109 53 11 -17 4 -32 -57 -122 -57 -84 -64 -116 -33 -147 52 -52 137 1 268
168 56 71 28 47 -44 -38 -71 -83 -128 -130 -157 -130 -31 0 -18 43 38 129 57
87 67 127 39 155 -15 16 -46 19 -74 9z"/>
<path d="M3185 2036 c-22 -12 -85 -46 -140 -75 -115 -61 -130 -73 -156 -123
-25 -49 -24 -91 3 -139 21 -37 84 -79 119 -79 8 0 48 20 88 45 40 25 75 45 78
45 2 0 39 22 81 49 42 26 163 99 267 161 105 62 199 119 210 126 17 12 -19 14
-245 14 -257 -1 -266 -2 -305 -24z"/>
<path d="M4655 2047 c11 -8 45 -27 75 -44 67 -37 310 -172 365 -203 114 -65
181 -92 234 -97 51 -5 60 -3 89 22 86 72 0 185 -225 299 l-73 36 -242 0 c-206
0 -239 -2 -223 -13z"/>
<path d="M1473 2034 c-8 -21 13 -42 28 -27 13 13 5 43 -11 43 -6 0 -13 -7 -17
-16z"/>
<path d="M6932 1973 c2 -10 10 -18 18 -18 8 0 16 8 18 18 2 12 -3 17 -18 17
-15 0 -20 -5 -18 -17z"/>
<path d="M1530 1900 c-13 -8 -7 -26 39 -112 357 -679 971 -1202 1696 -1446
330 -111 605 -156 965 -155 453 0 837 81 1243 264 490 220 932 591 1240 1039
82 121 207 338 207 362 0 43 -33 10 -88 -90 -780 -1399 -2498 -1937 -3922
-1228 -552 275 -993 702 -1295 1254 -37 67 -68 122 -68 122 -1 0 -9 -5 -17
-10z"/>
<path d="M3855 1360 l0 -90 30 0 c20 0 26 3 17 9 -9 5 -12 24 -10 52 2 36 7
44 23 44 17 0 20 -8 23 -52 2 -43 6 -53 21 -53 16 0 17 6 10 57 -8 60 -21 75
-56 66 -20 -4 -23 -1 -23 26 0 23 -5 31 -17 31 -16 0 -18 -11 -18 -90z"/>
<path d="M4883 1438 c-18 -23 -25 -52 -26 -111 l-2 -57 30 1 c17 0 24 3 18 6
-8 3 -13 24 -13 53 0 42 3 49 23 53 l22 4 -22 2 c-16 1 -23 7 -23 21 0 16 7
20 31 20 17 0 28 4 24 10 -9 14 -51 12 -62 -2z"/>
<path d="M5296 1425 c5 -21 3 -25 -15 -25 -32 0 -61 -35 -61 -74 0 -43 16 -56
71 -54 l44 0 -3 89 c-3 80 -5 89 -23 89 -16 0 -18 -5 -13 -25z m4 -89 c0 -45
-17 -65 -39 -43 -12 12 -15 69 -4 80 3 4 15 7 25 7 15 0 18 -8 18 -44z"/>
<path d="M3108 1364 c3 -56 0 -79 -10 -85 -8 -6 -1 -8 22 -8 19 0 29 3 23 6
-9 3 -13 26 -12 66 l0 62 22 -57 c26 -73 49 -77 67 -13 7 24 16 42 21 39 13
-8 11 -78 -3 -92 -9 -9 -4 -12 22 -12 26 0 31 3 22 12 -16 16 -16 145 1 151 6
3 -2 6 -19 6 -30 1 -32 -2 -49 -61 -19 -68 -26 -65 -46 14 -10 42 -14 48 -37
48 l-27 0 3 -76z"/>
<path d="M4360 1430 c0 -5 7 -10 15 -10 8 0 15 5 15 10 0 6 -7 10 -15 10 -8 0
-15 -4 -15 -10z"/>
<path d="M3765 1407 c-4 -12 -6 -26 -4 -32 1 -5 5 -30 8 -55 5 -40 9 -45 34
-48 15 -2 27 1 27 6 0 5 -8 9 -17 8 -14 -1 -19 8 -21 46 -3 42 -1 47 20 51
l23 4 -22 2 c-13 0 -23 7 -23 15 0 25 -17 27 -25 3z"/>
<path d="M4704 1413 c-3 -13 -11 -23 -18 -23 -8 0 -8 -3 1 -8 6 -4 13 -30 15
-57 3 -46 5 -50 31 -53 16 -2 27 1 27 9 0 7 -3 9 -7 6 -14 -14 -33 17 -33 54
0 36 2 39 28 40 26 1 26 1 3 8 -13 3 -28 15 -32 26 -8 19 -8 19 -15 -2z"/>
<path d="M3343 1390 c-27 -11 -40 -68 -24 -99 8 -15 21 -21 44 -21 44 0 57 15
57 67 0 32 -5 45 -19 53 -23 12 -29 12 -58 0z m47 -29 c14 -28 13 -47 -6 -66
-22 -22 -44 -2 -44 40 0 48 29 64 50 26z"/>
<path d="M3517 1393 c-4 -3 -19 -6 -34 -5 -28 1 -28 0 -28 -59 l0 -59 30 1
c17 0 24 3 18 6 -8 3 -13 23 -13 49 0 37 3 44 19 44 11 0 22 4 26 9 6 11 -9
23 -18 14z"/>
<path d="M3583 1385 c-52 -37 -31 -115 32 -115 18 0 37 5 40 10 4 6 -8 10 -28
10 -23 0 -37 6 -41 16 -9 24 -9 24 34 24 36 0 40 3 40 25 0 14 -8 29 -19 35
-26 13 -33 13 -58 -5z m45 -28 c3 -12 -3 -17 -22 -17 -28 0 -29 1 -20 25 8 20
38 15 42 -8z"/>
<path d="M4033 1392 c-32 -5 -29 -21 4 -19 41 3 42 -26 1 -38 -26 -8 -33 -15
-33 -35 0 -23 4 -25 51 -27 l51 -1 -4 46 c-3 26 -6 52 -8 58 -4 14 -32 21 -62
16z m37 -86 c0 -15 -24 -28 -34 -19 -13 14 -5 33 14 33 11 0 20 -6 20 -14z"/>
<path d="M4192 1391 c-7 -4 -25 -6 -40 -3 -22 4 -25 2 -14 -9 15 -17 16 -81 0
-97 -9 -9 -4 -12 22 -12 26 0 31 3 22 12 -17 17 -15 73 3 88 23 19 35 2 35
-51 0 -40 3 -49 18 -49 14 0 17 8 14 52 -4 63 -27 90 -60 69z"/>
<path d="M4588 1389 c-28 -16 -22 -47 13 -64 36 -19 33 -41 -5 -37 -14 1 -26
-2 -26 -8 0 -16 66 -12 80 5 16 19 8 39 -24 59 -32 20 -33 31 -3 32 38 2 42 4
27 14 -19 12 -40 12 -62 -1z"/>
<path d="M4972 1384 c-25 -17 -31 -81 -10 -102 36 -36 98 2 98 60 0 26 -30 58
-55 58 -6 0 -21 -7 -33 -16z m56 -42 c4 -37 -12 -64 -33 -56 -32 12 -20 98 12
92 12 -2 19 -14 21 -36z"/>
<path d="M5109 1381 c-27 -22 -32 -86 -8 -102 21 -13 65 -11 78 4 23 29 24 74
2 96 -26 26 -42 26 -72 2z m55 -17 c19 -49 -8 -99 -38 -69 -27 28 -18 85 14
85 10 0 21 -7 24 -16z"/>
<path d="M4358 1311 c3 -70 1 -80 -15 -83 -10 -2 -13 -6 -8 -10 6 -3 20 -2 33
3 20 8 22 15 22 89 0 69 -2 80 -17 80 -16 0 -18 -9 -15 -79z"/>
<path d="M4427 1353 c8 -82 8 -83 64 -81 39 0 49 4 45 15 -3 8 -6 35 -6 59 0
37 -3 44 -19 44 -17 0 -18 -3 -8 -29 14 -37 -4 -84 -28 -75 -11 4 -15 20 -15
55 0 41 -3 49 -18 49 -15 0 -17 -7 -15 -37z"/>
</g>
</svg>
